<svg xmlns="http://www.w3.org/2000/svg" width="24.012" height="16.477" viewBox="0 0 24.012 16.477">
  <g id="Group_55" data-name="Group 55" transform="translate(-1055.489 -184)">
    <path id="Icon_ionic-ios-arrow-round-up" data-name="Icon ionic-ios-arrow-round-up" d="M22.026,13.851a.748.748,0,0,1-1.053.006l-3.485-3.474V23.621a.744.744,0,0,1-1.488,0V10.383l-3.485,3.48a.753.753,0,0,1-1.053-.006.741.741,0,0,1,.006-1.047l4.75-4.716h0a.835.835,0,0,1,.235-.155.71.71,0,0,1,.286-.057.746.746,0,0,1,.521.212l4.75,4.716A.729.729,0,0,1,22.026,13.851Z" transform="translate(1057.264 176.118)" fill="#8385a1"/>
    <path id="Icon_ionic-ios-arrow-round-up-2" data-name="Icon ionic-ios-arrow-round-up" d="M10.779,5.969a.748.748,0,0,1-1.053.006L6.24,2.5V15.738a.744.744,0,0,1-1.488,0V2.5L1.267,5.981A.753.753,0,0,1,.214,5.975.741.741,0,0,1,.22,4.928L4.97.212h0A.835.835,0,0,1,5.2.057.71.71,0,0,1,5.491,0a.746.746,0,0,1,.521.212l4.75,4.716A.729.729,0,0,1,10.779,5.969Z" transform="translate(1066.478 200.477) rotate(180)" fill="#8385a1"/>
  </g>
</svg>
