<svg xmlns="http://www.w3.org/2000/svg" width="27.313" height="26.461" viewBox="0 0 27.313 26.461">
  <g id="Icon_ionic-md-rocket" data-name="Icon ionic-md-rocket" transform="translate(12.892 -6.761) rotate(50)">
    <path id="Path_36" data-name="Path 36" d="M17.186,29.468a5.942,5.942,0,0,1-2.367-.6.429.429,0,0,0-.6.419L14.41,32.1a.216.216,0,0,0,.348.155l.8-.607a.218.218,0,0,1,.315.055L17,33.475a.217.217,0,0,0,.364,0L18.5,31.7a.218.218,0,0,1,.315-.055l.8.607a.216.216,0,0,0,.348-.155l.193-2.814a.427.427,0,0,0-.6-.419A5.968,5.968,0,0,1,17.186,29.468Z" transform="translate(-1.363 -5.96)" fill="#484df9"/>
    <path id="Path_37" data-name="Path 37" d="M23.643,16.417l-2.649-2.71c0-8.719-5.143-12.582-5.143-12.582s-5.193,3.863-5.193,12.582l-2.649,2.71a.459.459,0,0,0-.121.392L8.9,22.978a.422.422,0,0,0,.651.3l3.7-2.505a4.213,4.213,0,0,0,2.6,1.1,3.984,3.984,0,0,0,2.544-1.1l3.7,2.505a.424.424,0,0,0,.651-.3L23.775,16.8A.49.49,0,0,0,23.643,16.417Zm-7.792-5.579a1.767,1.767,0,1,1,1.694-1.766A1.729,1.729,0,0,1,15.851,10.838Z" transform="translate(0)" fill="#484df9"/>
  </g>
</svg>
