<svg xmlns="http://www.w3.org/2000/svg" width="16.796" height="21.007" viewBox="0 0 16.796 21.007">
  <g id="Icon_ionic-ios-notifications" data-name="Icon ionic-ios-notifications" transform="translate(-6.761 -3.93)">
    <path id="Path_40" data-name="Path 40" d="M17.135,31.119a2.475,2.475,0,0,0,2.525-2.783H14.6A2.476,2.476,0,0,0,17.135,31.119Z" transform="translate(-1.986 -6.181)" fill="#8385a1"/>
    <path id="Path_41" data-name="Path 41" d="M23.344,19.487c-.809-1.066-2.4-1.691-2.4-6.463,0-4.9-2.163-6.868-4.179-7.34-.189-.047-.326-.11-.326-.31V5.222a1.281,1.281,0,1,0-2.562,0v.152c0,.194-.137.263-.326.31-2.021.478-4.179,2.441-4.179,7.34,0,4.773-1.591,5.392-2.4,6.463a1.042,1.042,0,0,0,.835,1.67H22.514A1.042,1.042,0,0,0,23.344,19.487Z" transform="translate(0 0)" fill="#8385a1"/>
  </g>
</svg>
