<svg xmlns="http://www.w3.org/2000/svg" width="20.084" height="15.9" viewBox="0 0 20.084 15.9">
  <g id="Icon_ionic-ios-list" data-name="Icon ionic-ios-list" transform="translate(-4.5 -7.313)">
    <path id="Path_81" data-name="Path 81" d="M7.429,17.5a1.464,1.464,0,1,1-1.464-1.464A1.464,1.464,0,0,1,7.429,17.5Z" transform="translate(0 -2.233)" fill="#8385a1"/>
    <path id="Path_82" data-name="Path 82" d="M7.429,8.777A1.464,1.464,0,1,1,5.964,7.313,1.464,1.464,0,0,1,7.429,8.777Z" fill="#8385a1"/>
    <path id="Path_83" data-name="Path 83" d="M7.429,26.214A1.464,1.464,0,1,1,5.964,24.75a1.464,1.464,0,0,1,1.464,1.464Z" transform="translate(0 -4.466)" fill="#8385a1"/>
    <path id="Path_84" data-name="Path 84" d="M25.756,16.875H13.177a.837.837,0,1,0,0,1.674H25.756a.837.837,0,0,0,0-1.674Z" transform="translate(-2.008 -2.449)" fill="#8385a1"/>
    <path id="Path_85" data-name="Path 85" d="M25.756,25.594H13.177a.837.837,0,1,0,0,1.674H25.756a.837.837,0,0,0,0-1.674Z" transform="translate(-2.008 -4.682)" fill="#8385a1"/>
    <path id="Path_86" data-name="Path 86" d="M13.177,9.83H25.756a.837.837,0,0,0,0-1.674H13.177a.837.837,0,1,0,0,1.674Z" transform="translate(-2.008 -0.216)" fill="#8385a1"/>
  </g>
</svg>
