<svg xmlns="http://www.w3.org/2000/svg" width="21.09" height="21.096" viewBox="0 0 21.09 21.096">
  <path id="Icon_ionic-ios-settings" data-name="Icon ionic-ios-settings" d="M23.849,15.045a2.714,2.714,0,0,1,1.741-2.532,10.757,10.757,0,0,0-1.3-3.136,2.75,2.75,0,0,1-1.1.236A2.708,2.708,0,0,1,20.708,5.8a10.725,10.725,0,0,0-3.131-1.3,2.712,2.712,0,0,1-5.064,0A10.757,10.757,0,0,0,9.377,5.8,2.708,2.708,0,0,1,6.9,9.613a2.661,2.661,0,0,1-1.1-.236,11,11,0,0,0-1.3,3.142,2.713,2.713,0,0,1,.005,5.064,10.757,10.757,0,0,0,1.3,3.136,2.709,2.709,0,0,1,3.575,3.575,10.82,10.82,0,0,0,3.136,1.3,2.707,2.707,0,0,1,5.053,0,10.757,10.757,0,0,0,3.136-1.3,2.712,2.712,0,0,1,3.575-3.575,10.82,10.82,0,0,0,1.3-3.136A2.727,2.727,0,0,1,23.849,15.045Zm-8.755,4.388a4.394,4.394,0,1,1,4.394-4.394A4.393,4.393,0,0,1,15.095,19.433Z" transform="translate(-4.5 -4.5)" fill="#8385a1"/>
</svg>
