<svg xmlns="http://www.w3.org/2000/svg" width="18.153" height="15.748" viewBox="0 0 18.153 15.748">
  <path id="Icon_ionic-md-folder-open" data-name="Icon ionic-md-folder-open" d="M18.674,9.112H11.327L9.6,6.75H3.979A1.947,1.947,0,0,0,2.25,8.85V20.4a1.947,1.947,0,0,0,1.729,2.1h14.7A1.947,1.947,0,0,0,20.4,20.4V11.212A1.947,1.947,0,0,0,18.674,9.112ZM19.106,20.4a.492.492,0,0,1-.432.525H3.979a.492.492,0,0,1-.432-.525V10.687H18.674a.492.492,0,0,1,.432.525Z" transform="translate(-2.25 -6.75)" fill="#8385a1"/>
</svg>
