<svg xmlns="http://www.w3.org/2000/svg" width="18.529" height="16.213" viewBox="0 0 18.529 16.213">
  <path id="Icon_open-list" data-name="Icon open-list" d="M1.158,0A1.147,1.147,0,0,0,0,1.158,1.147,1.147,0,0,0,1.158,2.316,1.147,1.147,0,0,0,2.316,1.158,1.147,1.147,0,0,0,1.158,0ZM4.632,0V2.316h13.9V0ZM1.158,4.632a1.158,1.158,0,0,0,0,2.316,1.158,1.158,0,0,0,0-2.316Zm3.474,0V6.948h13.9V4.632ZM1.158,9.264a1.158,1.158,0,0,0,0,2.316,1.158,1.158,0,0,0,0-2.316Zm3.474,0V11.58h13.9V9.264ZM1.158,13.9a1.158,1.158,0,0,0,0,2.316,1.158,1.158,0,0,0,0-2.316Zm3.474,0v2.316h13.9V13.9Z" fill="#a7afb9"/>
</svg>
