<svg xmlns="http://www.w3.org/2000/svg" xmlns:xlink="http://www.w3.org/1999/xlink" width="52" height="52" viewBox="0 0 52 52">
  <defs>
    <filter id="Path_50" x="0" y="0" width="52" height="52" filterUnits="userSpaceOnUse">
      <feOffset dy="3" input="SourceAlpha"/>
      <feGaussianBlur stdDeviation="3" result="blur"/>
      <feFlood flood-color="#4848fc" flood-opacity="0.502"/>
      <feComposite operator="in" in2="blur"/>
      <feComposite in="SourceGraphic"/>
    </filter>
  </defs>
  <g transform="matrix(1, 0, 0, 1, 0, 0)" filter="url(#Path_50)">
    <g id="Path_50-2" data-name="Path 50" transform="translate(9 6)" fill="#484df9">
      <path d="M 17 33 C 12.72624969482422 33 8.708290100097656 31.3357105255127 5.68628978729248 28.3137092590332 C 2.664289951324463 25.29170989990234 1 21.27375030517578 1 17 C 1 12.72624969482422 2.664289951324463 8.708290100097656 5.68628978729248 5.68628978729248 C 8.708290100097656 2.664289951324463 12.72624969482422 1 17 1 C 21.27375030517578 1 25.29170989990234 2.664289951324463 28.3137092590332 5.68628978729248 C 31.3357105255127 8.708290100097656 33 12.72624969482422 33 17 C 33 21.27375030517578 31.3357105255127 25.29170989990234 28.3137092590332 28.3137092590332 C 25.29170989990234 31.3357105255127 21.27375030517578 33 17 33 Z" stroke="none"/>
      <path d="M 17 2 C 12.99336051940918 2 9.226520538330078 3.560270309448242 6.393400192260742 6.393400192260742 C 3.560270309448242 9.226520538330078 2 12.99336051940918 2 17 C 2 21.00664138793945 3.560270309448242 24.77347946166992 6.393400192260742 27.60659980773926 C 9.226520538330078 30.43972969055176 12.99336051940918 32 17 32 C 21.00664138793945 32 24.77347946166992 30.43972969055176 27.60659980773926 27.60659980773926 C 30.43972969055176 24.77347946166992 32 21.00664138793945 32 17 C 32 12.99336051940918 30.43972969055176 9.226520538330078 27.60659980773926 6.393400192260742 C 24.77347946166992 3.560270309448242 21.00664138793945 2 17 2 M 17 0 C 26.38883972167969 0 34 7.611160278320313 34 17 C 34 26.38883972167969 26.38883972167969 34 17 34 C 7.611160278320313 34 0 26.38883972167969 0 17 C 0 7.611160278320313 7.611160278320313 0 17 0 Z" stroke="none" fill="#484df9"/>
    </g>
  </g>
</svg>
